<?xml version="1.0" encoding="UTF-8"?>
<svg width="20px" height="20px" viewBox="0 0 20 20" version="1.1" xmlns="http://www.w3.org/2000/svg" xmlns:xlink="http://www.w3.org/1999/xlink">
    <!-- Generator: Sketch 47.1 (45422) - http://www.bohemiancoding.com/sketch -->
    <title>error</title>
    <desc>Created with Sketch.</desc>
    <defs></defs>
    <g id="Iconography" stroke="none" stroke-width="1" fill="none" fill-rule="evenodd">
        <g transform="translate(-272.000000, -489.000000)" id="black-icons">
            <g transform="translate(82.000000, 487.000000)">
                <g id="error" transform="translate(188.000000, 0.000000)">
                    <rect id="bounding-box" x="0" y="0" width="24" height="24"></rect>
                    <path d="M12,20 C7.58,20 4,16.42 4,12 C4,7.58 7.58,4 12,4 C16.42,4 20,7.58 20,12 C20,16.42 16.42,20 12,20 L12,20 Z M11.99,2 C6.47,2 2,6.48 2,12 C2,17.52 6.47,22 11.99,22 C17.52,22 22,17.52 22,12 C22,6.48 17.52,2 11.99,2 L11.99,2 Z M11,13 L13,13 L13,7 L11,7 L11,13 Z M11,17 L13,17 L13,15 L11,15 L11,17 Z" id="-alert-icon" fill="#E8200D"></path>
                </g>
            </g>
        </g>
    </g>
</svg>