<?xml version="1.0" encoding="utf-8"?>
<!-- Generator: Adobe Illustrator 21.1.0, SVG Export Plug-In . SVG Version: 6.00 Build 0)  -->
<svg version="1.1" id="Layer_1" xmlns="http://www.w3.org/2000/svg" xmlns:xlink="http://www.w3.org/1999/xlink" x="0px" y="0px"
	 viewBox="0 0 24 24" style="enable-background:new 0 0 24 24;" xml:space="preserve">
<style type="text/css">
	.st0{fill:none;}
	.st1{fill:#333333;}
</style>
<title>list/icon/info</title>
<desc>Created with Sketch.</desc>
<g id="Dialog-Boxes---Tooltips">
	<g id="Tooltips" transform="translate(-427.000000, -892.000000)">
		<g id="desktop" transform="translate(77.000000, 476.000000)">
			<g id="light" transform="translate(155.000000, 49.000000)">
				<g id="tooltip-left" transform="translate(44.000000, 346.000000)">
					<g id="point-of-origin" transform="translate(149.000000, 19.000000)">
						<g id="icon_x2F_help_x2F_g80">
							<rect id="icon" x="2" y="2" class="st0" width="24" height="24"/>
							<g id="ic_help_black_24px">
								<polygon id="Shape" class="st0" points="2,2 26,2 26,26 2,26 								"/>
								<path id="Shape_1_" class="st1" d="M14,4C8.5,4,4,8.5,4,14s4.5,10,10,10s10-4.5,10-10S19.5,4,14,4z M15,21h-2v-2h2V21z
									 M17.1,13.2l-0.9,0.9C15.4,14.9,15,15.5,15,17h-2v-0.5c0-1.1,0.4-2.1,1.2-2.8l1.2-1.3c0.4-0.4,0.6-0.9,0.6-1.4
									c0-1.1-0.9-2-2-2s-2,0.9-2,2h-2c0-2.2,1.8-4,4-4s4,1.8,4,4C18,11.9,17.6,12.7,17.1,13.2z"/>
							</g>
						</g>
					</g>
				</g>
			</g>
		</g>
	</g>
</g>
</svg>
